<svg xmlns="http://www.w3.org/2000/svg" xmlns:xlink="http://www.w3.org/1999/xlink" id="a" viewBox="0 0 1000 1000">
  <defs>
    <linearGradient id="b" x1="746.75" x2="746.75" y1="524.14" y2="474.14" gradientUnits="userSpaceOnUse">
      <stop offset="0" stop-color="#5d5d7a"/>
      <stop offset=".1" stop-color="#7e7ea1"/>
      <stop offset=".23" stop-color="#a3a5ce"/>
      <stop offset=".33" stop-color="#bbbdea"/>
      <stop offset=".39" stop-color="#c4c6f5"/>
      <stop offset=".4" stop-color="#c1c2f1"/>
      <stop offset=".52" stop-color="#b1add9"/>
      <stop offset=".62" stop-color="#a8a1cb"/>
      <stop offset=".72" stop-color="#a59dc7"/>
      <stop offset="1" stop-color="#5d5d7a"/>
    </linearGradient>
    <linearGradient xlink:href="#b" id="c" x1="252.54" x2="252.54"/>
    <linearGradient xlink:href="#b" id="d" x1="430.71" x2="430.71" y1="797.67" y2="202.61"/>
    <linearGradient xlink:href="#b" id="e" x1="570.96" x2="570.96" y1="797.67" y2="202.61"/>
    <style>
      .f{fill:none;stroke:#5757db;stroke-miterlimit:10;stroke-width:6px}
    </style>
  </defs>
  <path fill="#fff" stroke-width="0" d="M4 4h992v992H4z"/>
  <path fill="#008a19" stroke-width="0" d="M992 8v984H8V8zm8-8H0v1000h1000z"/>
  <path fill="url(#b)" stroke-width="0" d="M542.85 474.14h407.79v50H542.85z"/>
  <path fill="url(#c)" stroke-width="0" d="M49.8 474.14h405.49v50H49.8z"/>
  <path fill="url(#d)" stroke-width="0" d="M390.71 202.61h80v595.07h-80z"/>
  <path fill="url(#e)" stroke-width="0" d="M530.96 202.61h80v595.07h-80z"/>
  <path d="M305.29 351.01h-65.15v-80.4l259-170 262 171v80H692" class="f"/>
  <path fill="#5757db" stroke-width="0" d="m293.34 340.83 10.17 10.18-10.17 10.17h8.63l10.17-10.17-10.17-10.18zm410.61.6-10.17 10.18 10.17 10.17h-8.63l-10.18-10.17 10.18-10.18z"/>
  <path d="M499.14 100.61V4.93" class="f"/>
  <path fill="#231f20" stroke-width="0" d="m591.41 503.02-122.82 56.37V440.61z"/>
</svg>
